<svg width="494" height="494" viewBox="0 0 494 494" fill="none" xmlns="http://www.w3.org/2000/svg">
<g clip-path="url(#clip0)">
<path d="M490.498 239.278L380.866 139.349C377.82 136.875 374.49 136.399 370.873 137.922C367.26 139.447 365.446 142.205 365.446 146.204V210.158H9.136C6.47 210.158 4.28 211.013 2.569 212.726C0.859 214.438 0 216.628 0 219.292V274.108C0 276.771 0.855 278.961 2.568 280.671C4.283 282.383 6.473 283.238 9.135 283.238H365.448V347.191C365.448 351.003 367.265 353.761 370.876 355.469C374.496 356.998 377.826 356.42 380.872 353.761L490.504 252.684C492.407 250.782 493.356 248.502 493.356 245.835C493.356 243.367 492.401 241.181 490.498 239.278Z" fill="#800000"/>
</g>
<defs>
<clipPath id="clip0">
<rect width="493.356" height="493.356" fill="white"/>
</clipPath>
</defs>
</svg>
