<svg width="494" height="494" viewBox="0 0 494 494" fill="none" xmlns="http://www.w3.org/2000/svg">
<g clip-path="url(#clip0)">
<path d="M354.034 112.488L252.676 2.853C250.771 0.95 248.487 0 245.82 0C243.342 0 241.155 0.95 239.253 2.853L139.326 112.489C136.851 115.538 136.374 118.866 137.895 122.483C139.419 126.099 142.178 127.907 146.175 127.907H210.129V484.222C210.129 486.885 210.984 489.075 212.699 490.786C214.412 492.493 216.598 493.348 219.266 493.348H274.082C276.751 493.348 278.941 492.493 280.645 490.786C282.356 489.074 283.218 486.885 283.218 484.222V127.907H347.172C350.978 127.907 353.735 126.098 355.446 122.483C356.976 118.862 356.498 115.534 354.034 112.488Z" fill="#800000"/>
</g>
<defs>
<clipPath id="clip0">
<rect width="493.348" height="493.349" fill="white"/>
</clipPath>
</defs>
</svg>
