<svg width="494" height="494" viewBox="0 0 494 494" fill="none" xmlns="http://www.w3.org/2000/svg">
<g clip-path="url(#clip0)">
<path d="M355.457 370.873C353.934 367.259 351.169 365.445 347.172 365.445H283.218V9.135C283.218 6.469 282.36 4.279 280.649 2.568C278.944 0.855 276.753 0 274.084 0H219.266C216.599 0 214.412 0.855 212.699 2.568C210.988 4.279 210.129 6.469 210.129 9.135V365.449H146.176C142.37 365.449 139.609 367.259 137.896 370.877C136.375 374.49 136.853 377.82 139.327 380.873L240.68 490.505C242.583 492.407 244.867 493.356 247.534 493.356C250.012 493.356 252.199 492.408 254.101 490.505L354.028 380.873C356.503 377.82 356.983 374.49 355.457 370.873Z" fill="#800000"/>
</g>
<defs>
<clipPath id="clip0">
<rect width="493.356" height="493.355" fill="white"/>
</clipPath>
</defs>
</svg>
