<svg xmlns="http://www.w3.org/2000/svg" viewBox="0 0 305.13013 56.55494"><defs><style>.cls-1{fill:#1d1d1b;}.cls-2{fill:#3a173e;}.cls-3{fill:#fbe3ef;}.cls-4{fill:#99d2d0;}</style></defs><title>logo</title><g id="Layer_2" data-name="Layer 2"><g id="logo"><path class="cls-1" d="M207.352,20.19752l1.52637,3.8639h-3.05017Zm1.99544,5.03265.02332.057.83963,2.10946h1.49269l-3.48294-8.443h-1.67151l-3.483,8.443h1.44346l.84741-2.16648Z"/><path class="cls-1" d="M214.47655,26.24033V20.10889h1.72852a2.8411,2.8411,0,0,1,2.97761,3.08386,2.83,2.83,0,0,1-2.99057,3.04758Zm6.13662-3.04758a4.07007,4.07007,0,0,0-4.35629-4.23966h-3.146v8.443h3.1331a4.06094,4.06094,0,0,0,4.36924-4.20338"/><path class="cls-1" d="M229.16583,26.12294l.13475,1.27242h1.07806V23.21271h-4.2915v1.0936h3.02426l-.00777.10107a2.45953,2.45953,0,0,1-2.7055,2.01617,3.01556,3.01556,0,0,1-3.10978-3.2549,3.04056,3.04056,0,0,1,3.12014-3.23158,2.74479,2.74479,0,0,1,2.72365,1.77516l1.28537-.46128a4.03371,4.03371,0,0,0-4.009-2.48,4.31672,4.31672,0,0,0-4.51176,4.39774,4.26839,4.26839,0,0,0,4.40811,4.40811,3.13815,3.13815,0,0,0,2.72105-1.23355Z"/><polygon class="cls-1" points="237.963 20.133 237.963 18.954 232.5 18.954 232.5 27.397 237.963 27.397 237.963 26.218 233.863 26.218 233.863 23.745 237.576 23.745 237.576 22.602 233.863 22.602 233.863 20.133 237.963 20.133"/><polygon class="cls-1" points="245.989 27.396 247.463 27.396 247.463 18.953 246.098 18.953 246.098 25.276 245.935 25.032 241.809 18.953 239.974 18.953 239.974 27.396 241.342 27.396 241.342 20.663 241.506 20.902 245.989 27.396"/><path class="cls-1" d="M251.176,26.24033V20.10889h1.72852a2.84111,2.84111,0,0,1,2.97762,3.08386,2.83,2.83,0,0,1-2.99057,3.04758Zm6.13663-3.04758a4.07007,4.07007,0,0,0-4.3563-4.23966h-3.146v8.443h3.1331a4.06094,4.06094,0,0,0,4.36925-4.20338"/><path class="cls-1" d="M262.09706,20.19752l1.52637,3.8639h-3.05016Zm1.99545,5.03265.02331.057.83963,2.10946h1.4927l-3.483-8.443h-1.6715l-3.48036,8.443h1.43827l.8526-2.16648Z"/><polygon class="cls-1" points="213.862 41.395 213.862 32.952 211.911 32.952 208.926 39.664 205.904 32.952 203.989 32.952 203.989 41.395 205.318 41.395 205.318 34.735 208.288 41.395 209.511 41.395 212.51 34.711 212.51 41.395 213.862 41.395"/><polygon class="cls-1" points="221.694 34.132 221.694 32.953 216.228 32.953 216.228 41.396 221.694 41.396 221.694 40.216 217.592 40.216 217.592 37.744 221.308 37.744 221.308 36.601 217.592 36.601 217.592 34.132 221.694 34.132"/><path class="cls-1" d="M225.07025,40.239V34.10754h1.72852a2.8411,2.8411,0,0,1,2.97761,3.08386,2.83,2.83,0,0,1-2.99057,3.04758Zm6.13662-3.04758a4.07006,4.07006,0,0,0-4.35629-4.23966h-3.146v8.443h3.1331a4.06093,4.06093,0,0,0,4.36924-4.20338"/><rect class="cls-1" x="233.03595" y="32.9533" width="1.38903" height="8.44045"/><path class="cls-1" d="M240.09981,34.19617l1.52637,3.86649H238.576Zm1.99544,5.03265.02332.057.83963,2.10946h1.49269l-3.48294-8.443h-1.67151l-3.48035,8.443h1.43827l.85-2.16648Z"/><rect class="cls-1" x="203.99064" y="46.95247" width="1.38903" height="8.44045"/><polygon class="cls-1" points="213.831 46.952 213.831 53.272 213.665 53.029 209.542 46.952 207.707 46.952 207.707 55.392 209.073 55.392 209.073 48.662 209.239 48.9 213.725 55.392 215.196 55.392 215.196 46.952 213.831 46.952"/><polygon class="cls-1" points="216.581 46.952 216.581 48.141 219.545 48.141 219.545 55.392 220.908 55.392 220.908 48.141 223.889 48.141 223.889 46.952 216.581 46.952"/><polygon class="cls-1" points="225.271 46.952 225.271 55.392 230.734 55.392 230.734 54.216 226.637 54.216 226.637 51.743 230.348 51.743 230.348 50.6 226.637 50.6 226.637 48.131 230.734 48.131 230.734 46.952 225.271 46.952"/><path class="cls-1" d="M234.12592,48.05774h1.75184c1.01069,0,1.66374.55458,1.66374,1.41754,0,.83964-.6686,1.40458-1.66374,1.40458h-1.75184Zm1.30352,3.97533,1.89437,3.36115h1.54192l-2.04467-3.52441.1192-.02591a2.38858,2.38858,0,0,0,1.99285-2.36861,2.53888,2.53888,0,0,0-2.77029-2.5241h-3.41816v8.443h1.38126v-3.4078h1.2776Z"/><polygon class="cls-1" points="246.903 46.952 246.903 53.272 242.617 46.952 240.78 46.952 240.78 55.392 242.145 55.392 242.145 48.662 242.311 48.9 246.797 55.392 248.266 55.392 248.266 46.952 246.903 46.952"/><path class="cls-1" d="M253.96189,48.19561l1.52637,3.8639h-3.05018Zm-.80335-1.24391-3.483,8.44045h1.44086l.85258-2.16389h3.98829l.02333.057.84222,2.10687H258.313L254.83,46.9517Z"/><polygon class="cls-1" points="257.805 46.952 257.805 48.141 260.767 48.141 260.767 55.392 262.132 55.392 262.132 48.141 265.113 48.141 265.113 46.952 257.805 46.952"/><rect class="cls-1" x="266.49454" y="46.95247" width="1.39163" height="8.44045"/><path class="cls-1" d="M277.40779,51.16492a3.1517,3.1517,0,1,1-3.159-3.20566,3.04721,3.04721,0,0,1,3.159,3.20566m-7.70706,0a4.34362,4.34362,0,0,0,4.548,4.4107,4.40649,4.40649,0,1,0-4.548-4.4107"/><polygon class="cls-1" points="286.758 46.952 286.758 53.272 286.592 53.029 282.469 46.952 280.634 46.952 280.634 55.392 282.003 55.392 282.003 48.662 282.166 48.9 286.652 55.392 288.124 55.392 288.124 46.952 286.758 46.952"/><path class="cls-1" d="M293.81935,48.19561l1.52378,3.8639H292.293Zm-.80594-1.24391-3.483,8.44045h1.44086l.85258-2.16389h3.98829l.02333.057.83963,2.10687h1.4927l-3.483-8.44045Z"/><polygon class="cls-1" points="299.577 46.952 299.577 55.392 305.13 55.392 305.13 54.19 300.942 54.19 300.942 46.952 299.577 46.952"/><path class="cls-1" d="M95.89976,48.66648c-3.12532,0-4.548-2.07578-4.548-4.00643,0-2.91541,2.28828-3.91573,4.20338-4.23707l8.52078-1.288v.907c0,7.12916-4.447,8.62444-8.17612,8.62444m18.07557,6.05888a31.67914,31.67914,0,0,1-.425-5.595V31.39426c0-8.73329-5.8386-13.94734-15.61885-13.94734-9.74137,0-14.84918,6.32321-15.47373,12.19551l-.057.539,8.87841,2.03172.07-.68415A6.25369,6.25369,0,0,1,98.004,25.62563c3.85871,0,6.07184,1.757,6.07184,4.815,0,.8215-.25137,1.69742-2.0991,1.96434l-9.065,1.39162c-7.00218,1.02364-11.17964,5.27625-11.17964,11.3766,0,5.51726,4.40552,11.38178,12.57127,11.38178a13.06649,13.06649,0,0,0,10.32186-4.46512,14.40379,14.40379,0,0,0,.35244,2.9491l.13994.41464h9.0028Z"/><path class="cls-1" d="M160.6357,17.52c-4.99119,0-8.824,1.9151-11.4077,5.69607C147.16778,19.62946,143.2676,17.52,138.57962,17.52a13.36044,13.36044,0,0,0-9.845,4.26039V18.54623h-9.25676V55.45408h9.5496V33.66492c0-4.36923,2.70032-7.30538,6.7223-7.30538,5.411,0,6.21955,4.21115,6.21955,6.71971V55.45408h9.47445V33.66492c0-4.23189,2.8299-7.30538,6.72489-7.30538,3.952,0,6.217,2.44895,6.217,6.71971V55.45408h9.33191V31.68762c0-10.45662-7.04623-14.16762-13.08178-14.16762"/><path class="cls-1" d="M183.73149,12.72809a6.14257,6.14257,0,1,0-6.04592-6.10552,6.11831,6.11831,0,0,0,6.04592,6.10552"/><rect class="cls-1" x="178.99323" y="18.54467" width="9.54961" height="36.91045"/><rect class="cls-2" width="34.33137" height="41.63401"/><rect class="cls-3" x="36.60686" y="15.67393" width="10.73421" height="40.08528"/><rect class="cls-4" x="49.61656" y="30.04268" width="16.59194" height="11.59133"/><rect class="cls-4" y="43.90872" width="10.51096" height="11.85049"/></g></g></svg>